<svg width="41" height="45" viewBox="0 0 41 45" fill="none" xmlns="http://www.w3.org/2000/svg">
<path fill-rule="evenodd" clip-rule="evenodd" d="M28.7365 0.0830078C29.5989 0.0830078 30.299 0.783008 30.299 1.64551L30.2999 3.41178C33.3418 3.62033 35.8682 4.66227 37.6562 6.45405C39.6083 8.41447 40.6354 11.2332 40.6251 14.6145V33.6207C40.6251 40.5624 36.2167 44.8749 29.1229 44.8749H11.5021C4.40833 44.8749 0 40.502 0 33.4624V14.6103C0 8.06278 3.93137 3.85997 10.3431 3.4125L10.3444 1.64551C10.3444 0.783008 11.0444 0.0830078 11.9069 0.0830078C12.7694 0.0830078 13.4694 0.783008 13.4694 1.64551L13.4687 3.37259H27.1729L27.174 1.64551C27.174 0.783008 27.874 0.0830078 28.7365 0.0830078ZM37.5 18.633H3.125V33.4624C3.125 38.8082 6.1 41.7499 11.5021 41.7499H29.1229C34.525 41.7499 37.5001 38.8624 37.5001 33.6207L37.5 18.633ZM27.1729 6.49759H13.4687L13.4694 8.50176C13.4694 9.36426 12.7694 10.0643 11.9069 10.0643C11.0444 10.0643 10.3444 9.36426 10.3444 8.50176L10.3433 6.54489C5.67612 6.93695 3.125 9.76604 3.125 14.6103V15.508H37.5L37.5001 14.6103C37.5083 12.0374 36.8167 10.0374 35.4437 8.66238C34.2386 7.45365 32.4768 6.73176 30.3007 6.54589L30.299 8.50176C30.299 9.36426 29.5989 10.0643 28.7365 10.0643C27.874 10.0643 27.174 9.36426 27.174 8.50176L27.1729 6.49759Z" fill="white"/>
<path d="M7.84 32H9.08V27.512H10.784V26.4H6.136V27.512H7.84V32ZM17.1879 29.2C17.1879 28.304 16.9079 27.584 16.3559 27.056C15.7959 26.528 15.0679 26.264 14.1639 26.264C13.2519 26.264 12.5239 26.528 11.9719 27.056C11.4119 27.584 11.1399 28.304 11.1399 29.2C11.1399 30.104 11.4119 30.816 11.9719 31.344C12.5239 31.872 13.2519 32.136 14.1639 32.136C15.0679 32.136 15.7959 31.872 16.3559 31.344C16.9079 30.816 17.1879 30.104 17.1879 29.2ZM15.9639 29.2C15.9639 29.728 15.7959 30.168 15.4679 30.504C15.1319 30.84 14.6999 31.008 14.1639 31.008C13.6359 31.008 13.2039 30.84 12.8679 30.504C12.5319 30.168 12.3639 29.728 12.3639 29.2C12.3639 28.688 12.5319 28.256 12.8679 27.904C13.2039 27.56 13.6359 27.384 14.1639 27.384C14.6919 27.384 15.1239 27.56 15.4599 27.904C15.7959 28.248 15.9639 28.68 15.9639 29.2ZM18.1162 26.4V32H20.4122C20.8842 32 21.3002 31.928 21.6682 31.768C22.0362 31.608 22.3242 31.4 22.5402 31.128C22.7562 30.856 22.9162 30.56 23.0282 30.224C23.1402 29.896 23.1962 29.544 23.1962 29.16C23.1962 28.656 23.1002 28.2 22.9082 27.792C22.7162 27.392 22.4122 27.056 21.9802 26.792C21.5482 26.536 21.0282 26.4 20.4122 26.4H18.1162ZM19.3482 27.528H20.4122C20.9482 27.528 21.3402 27.688 21.5882 27.992C21.8362 28.304 21.9642 28.688 21.9642 29.144C21.9642 29.368 21.9322 29.568 21.8842 29.76C21.8362 29.952 21.7562 30.128 21.6442 30.296C21.5322 30.472 21.3722 30.608 21.1642 30.704C20.9482 30.8 20.7002 30.848 20.4122 30.848H19.3482V27.528ZM28.3047 32H29.6567L27.1447 26.4H25.7847L23.2727 32H24.6167L25.0247 31.04H27.8967L28.3047 32ZM27.4247 29.936H25.4967L26.4647 27.664L27.4247 29.936ZM30.472 26.4H29.032V26.464L31.176 29.776V32H32.424V29.776L34.664 26.464V26.4H33.232L31.816 28.624L30.472 26.4Z" fill="white"/>
</svg>
