<svg width="41" height="45" viewBox="0 0 41 45" fill="none" xmlns="http://www.w3.org/2000/svg">
<path fill-rule="evenodd" clip-rule="evenodd" d="M28.7365 0.0830078C29.5989 0.0830078 30.299 0.783008 30.299 1.64551L30.2999 3.41178C33.3418 3.62033 35.8682 4.66227 37.6562 6.45405C39.6083 8.41447 40.6354 11.2332 40.6251 14.6145V33.6207C40.6251 40.5624 36.2167 44.8749 29.1229 44.8749H11.5021C4.40833 44.8749 0 40.502 0 33.4624V14.6103C0 8.06278 3.93137 3.85997 10.3431 3.4125L10.3444 1.64551C10.3444 0.783008 11.0444 0.0830078 11.9069 0.0830078C12.7694 0.0830078 13.4694 0.783008 13.4694 1.64551L13.4687 3.37259H27.1729L27.174 1.64551C27.174 0.783008 27.874 0.0830078 28.7365 0.0830078ZM37.5 18.633H3.125V33.4624C3.125 38.8082 6.1 41.7499 11.5021 41.7499H29.1229C34.525 41.7499 37.5001 38.8624 37.5001 33.6207L37.5 18.633ZM27.1729 6.49759H13.4687L13.4694 8.50176C13.4694 9.36426 12.7694 10.0643 11.9069 10.0643C11.0444 10.0643 10.3444 9.36426 10.3444 8.50176L10.3433 6.54489C5.67612 6.93695 3.125 9.76604 3.125 14.6103V15.508H37.5L37.5001 14.6103C37.5083 12.0374 36.8167 10.0374 35.4437 8.66238C34.2386 7.45365 32.4768 6.73176 30.3007 6.54589L30.299 8.50176C30.299 9.36426 29.5989 10.0643 28.7365 10.0643C27.874 10.0643 27.174 9.36426 27.174 8.50176L27.1729 6.49759Z" fill="white"/>
<path d="M10.472 26.4H9.032V26.464L11.176 29.776V32H12.424V29.776L14.664 26.464V26.4H13.232L11.816 28.624L10.472 26.4ZM19.1208 30.848H16.0808V29.72H18.8408V28.624H16.0808V27.544H19.0088V26.4H14.8568V32H19.1208V30.848ZM24.0828 32H25.4348L22.9228 26.4H21.5628L19.0508 32H20.3948L20.8028 31.04H23.6748L24.0828 32ZM23.2028 29.936H21.2748L22.2428 27.664L23.2028 29.936ZM30.5951 31.904L29.0591 30.048C29.5551 29.872 29.8911 29.64 30.0751 29.352C30.2511 29.064 30.3471 28.704 30.3551 28.288C30.3551 27.768 30.1711 27.32 29.8031 26.952C29.4351 26.584 28.9231 26.4 28.2831 26.4H25.6271V32H26.8751V30.16H27.7791L29.2111 32H30.5951V31.904ZM28.2831 27.472C28.5471 27.472 28.7551 27.56 28.8991 27.736C29.0431 27.912 29.1151 28.104 29.1231 28.32C29.1231 28.528 29.0511 28.704 28.9071 28.864C28.7631 29.024 28.5631 29.104 28.2991 29.104H26.8751V27.472H28.2831Z" fill="white"/>
</svg>
