<svg width="41" height="45" viewBox="0 0 41 45" fill="none" xmlns="http://www.w3.org/2000/svg">
<path fill-rule="evenodd" clip-rule="evenodd" d="M28.7365 0.0830078C29.5989 0.0830078 30.299 0.783008 30.299 1.64551L30.2999 3.41178C33.3418 3.62033 35.8682 4.66227 37.6562 6.45405C39.6083 8.41447 40.6354 11.2332 40.6251 14.6145V33.6207C40.6251 40.5624 36.2167 44.8749 29.1229 44.8749H11.5021C4.40833 44.8749 0 40.502 0 33.4624V14.6103C0 8.06278 3.93137 3.85997 10.3431 3.4125L10.3444 1.64551C10.3444 0.783008 11.0444 0.0830078 11.9069 0.0830078C12.7694 0.0830078 13.4694 0.783008 13.4694 1.64551L13.4687 3.37259H27.1729L27.174 1.64551C27.174 0.783008 27.874 0.0830078 28.7365 0.0830078ZM37.5 18.633H3.125V33.4624C3.125 38.8082 6.1 41.7499 11.5021 41.7499H29.1229C34.525 41.7499 37.5001 38.8624 37.5001 33.6207L37.5 18.633ZM27.1729 6.49759H13.4687L13.4694 8.50176C13.4694 9.36426 12.7694 10.0643 11.9069 10.0643C11.0444 10.0643 10.3444 9.36426 10.3444 8.50176L10.3433 6.54489C5.67612 6.93695 3.125 9.76604 3.125 14.6103V15.508H37.5L37.5001 14.6103C37.5083 12.0374 36.8167 10.0374 35.4437 8.66238C34.2386 7.45365 32.4768 6.73176 30.3007 6.54589L30.299 8.50176C30.299 9.36426 29.5989 10.0643 28.7365 10.0643C27.874 10.0643 27.174 9.36426 27.174 8.50176L27.1729 6.49759Z" fill="white"/>
<path d="M18.6575 24.208C18.6575 23.952 18.7695 23.752 18.9855 23.592C19.2015 23.432 19.4655 23.352 19.7695 23.352C20.0575 23.352 20.3055 23.408 20.5215 23.512C20.7295 23.616 20.8575 23.776 20.9055 23.992H22.0735C22.0415 23.4 21.8255 22.968 21.4095 22.696C20.9935 22.424 20.4495 22.288 19.7775 22.288C19.3615 22.288 18.9855 22.36 18.6415 22.488C18.2975 22.624 18.0095 22.84 17.7855 23.136C17.5535 23.44 17.4415 23.792 17.4415 24.208V26.184C17.4415 26.824 17.6735 27.296 18.1375 27.616C18.6015 27.936 19.1615 28.096 19.8175 28.096C20.1215 28.096 20.4175 28.064 20.6895 27.992C20.9615 27.92 21.2175 27.808 21.4415 27.664C21.6655 27.52 21.8415 27.32 21.9775 27.064C22.1055 26.816 22.1775 26.528 22.1775 26.2C22.1775 25.6 21.9615 25.136 21.5455 24.808C21.1295 24.488 20.6015 24.32 19.9695 24.32C19.6655 24.32 19.4175 24.36 19.2175 24.44C19.0095 24.52 18.8255 24.648 18.6575 24.832V24.208ZM19.8175 26.992C19.4815 26.992 19.2015 26.928 18.9935 26.784C18.7855 26.64 18.6735 26.448 18.6735 26.2C18.6655 25.944 18.7695 25.744 18.9855 25.6C19.1935 25.456 19.4735 25.376 19.8255 25.376C20.1615 25.376 20.4335 25.456 20.6335 25.6C20.8335 25.744 20.9375 25.944 20.9375 26.2C20.9375 26.44 20.8255 26.632 20.6175 26.776C20.4015 26.92 20.1375 26.992 19.8175 26.992ZM11.046 37.008H12.294V31.408H10.878L9.238 33.56L7.606 31.408H6.174V37.008H7.422V33.096L9.094 35.288H9.318L11.046 33.112V37.008ZM18.8692 34.2C18.8692 33.304 18.5892 32.584 18.0372 32.056C17.4772 31.528 16.7492 31.264 15.8452 31.264C14.9332 31.264 14.2052 31.528 13.6532 32.056C13.0932 32.584 12.8212 33.304 12.8212 34.2C12.8212 35.104 13.0932 35.816 13.6532 36.344C14.2052 36.872 14.9332 37.136 15.8452 37.136C16.7492 37.136 17.4772 36.872 18.0372 36.344C18.5892 35.816 18.8692 35.104 18.8692 34.2ZM17.6452 34.2C17.6452 34.728 17.4772 35.168 17.1492 35.504C16.8132 35.84 16.3812 36.008 15.8452 36.008C15.3172 36.008 14.8852 35.84 14.5492 35.504C14.2132 35.168 14.0452 34.728 14.0452 34.2C14.0452 33.688 14.2132 33.256 14.5492 32.904C14.8852 32.56 15.3172 32.384 15.8452 32.384C16.3732 32.384 16.8052 32.56 17.1412 32.904C17.4772 33.248 17.6452 33.68 17.6452 34.2ZM20.4694 31.4H19.3974V37H20.6614V35.256L20.6134 33.416L23.3974 37H24.4694V31.4H23.2134V33.28L23.2934 35.04L20.4694 31.4ZM26.5337 37H27.7737V32.512H29.4777V31.4H24.8297V32.512H26.5337V37ZM34.8236 37.008V31.408H33.5916V33.648H31.0876V31.408H29.8396V37.008H31.0876V34.792H33.5916V37.008H34.8236Z" fill="white"/>
</svg>
