<svg width="41" height="45" viewBox="0 0 41 45" fill="none" xmlns="http://www.w3.org/2000/svg">
<path fill-rule="evenodd" clip-rule="evenodd" d="M28.7365 0.0830078C29.5989 0.0830078 30.299 0.783008 30.299 1.64551L30.2999 3.41178C33.3418 3.62033 35.8682 4.66227 37.6562 6.45405C39.6083 8.41447 40.6354 11.2332 40.6251 14.6145V33.6207C40.6251 40.5624 36.2167 44.8749 29.1229 44.8749H11.5021C4.40833 44.8749 0 40.502 0 33.4624V14.6103C0 8.06278 3.93137 3.85997 10.3431 3.4125L10.3444 1.64551C10.3444 0.783008 11.0444 0.0830078 11.9069 0.0830078C12.7694 0.0830078 13.4694 0.783008 13.4694 1.64551L13.4687 3.37259H27.1729L27.174 1.64551C27.174 0.783008 27.874 0.0830078 28.7365 0.0830078ZM37.5 18.633H3.125V33.4624C3.125 38.8082 6.1 41.7499 11.5021 41.7499H29.1229C34.525 41.7499 37.5001 38.8624 37.5001 33.6207L37.5 18.633ZM27.1729 6.49759H13.4687L13.4694 8.50176C13.4694 9.36426 12.7694 10.0643 11.9069 10.0643C11.0444 10.0643 10.3444 9.36426 10.3444 8.50176L10.3433 6.54489C5.67612 6.93695 3.125 9.76604 3.125 14.6103V15.508H37.5L37.5001 14.6103C37.5083 12.0374 36.8167 10.0374 35.4437 8.66238C34.2386 7.45365 32.4768 6.73176 30.3007 6.54589L30.299 8.50176C30.299 9.36426 29.5989 10.0643 28.7365 10.0643C27.874 10.0643 27.174 9.36426 27.174 8.50176L27.1729 6.49759Z" fill="white"/>
<path d="M10.496 33.008H11.744V27.408H10.328L8.688 29.56L7.056 27.408H5.624V33.008H6.872V29.096L8.544 31.288H8.768L10.496 29.112V33.008ZM18.3192 30.2C18.3192 29.304 18.0392 28.584 17.4872 28.056C16.9272 27.528 16.1992 27.264 15.2952 27.264C14.3832 27.264 13.6552 27.528 13.1032 28.056C12.5432 28.584 12.2712 29.304 12.2712 30.2C12.2712 31.104 12.5432 31.816 13.1032 32.344C13.6552 32.872 14.3832 33.136 15.2952 33.136C16.1992 33.136 16.9272 32.872 17.4872 32.344C18.0392 31.816 18.3192 31.104 18.3192 30.2ZM17.0952 30.2C17.0952 30.728 16.9272 31.168 16.5992 31.504C16.2632 31.84 15.8312 32.008 15.2952 32.008C14.7672 32.008 14.3352 31.84 13.9992 31.504C13.6632 31.168 13.4952 30.728 13.4952 30.2C13.4952 29.688 13.6632 29.256 13.9992 28.904C14.3352 28.56 14.7672 28.384 15.2952 28.384C15.8232 28.384 16.2552 28.56 16.5912 28.904C16.9272 29.248 17.0952 29.68 17.0952 30.2ZM19.9194 27.4H18.8474V33H20.1114V31.256L20.0634 29.416L22.8474 33H23.9194V27.4H22.6634V29.28L22.7434 31.04L19.9194 27.4ZM25.9837 33H27.2237V28.512H28.9277V27.4H24.2797V28.512H25.9837V33ZM34.2736 33.008V27.408H33.0416V29.648H30.5376V27.408H29.2896V33.008H30.5376V30.792H33.0416V33.008H34.2736Z" fill="white"/>
</svg>
