<svg width="50" height="50" viewBox="0 0 50 50" fill="none" xmlns="http://www.w3.org/2000/svg">
<path d="M25 6V16.2703V26H44V17.3514L42.5 9.78378L36.5 6H25Z" fill="#B6B6B6"/>
<path fill-rule="evenodd" clip-rule="evenodd" d="M34.0285 4.16699C41.0889 4.16699 45.8327 9.12116 45.8327 16.492V33.5087C45.8327 40.8795 41.0889 45.8337 34.0264 45.8337H15.9681C8.90768 45.8337 4.16602 40.8795 4.16602 33.5087V16.492C4.16602 9.12116 8.90768 4.16699 15.9681 4.16699H34.0285ZM34.0285 7.29199H15.9681C10.6973 7.29199 7.29102 10.9024 7.29102 16.492V33.5087C7.29102 39.0982 10.6973 42.7087 15.9681 42.7087H34.0264C39.2994 42.7087 42.7077 39.0982 42.7077 33.5087V16.492C42.7077 10.9024 39.3014 7.29199 34.0285 7.29199Z" fill="white"/>
<rect x="23" y="12" width="4" height="15" rx="2" fill="white"/>
<rect x="37" y="24" width="4" height="14" rx="2" transform="rotate(90 37 24)" fill="white"/>
</svg>
