<svg width="41" height="45" viewBox="0 0 41 45" fill="none" xmlns="http://www.w3.org/2000/svg">
<path fill-rule="evenodd" clip-rule="evenodd" d="M28.7365 0.0830078C29.5989 0.0830078 30.299 0.783008 30.299 1.64551L30.2999 3.41178C33.3418 3.62033 35.8682 4.66227 37.6562 6.45405C39.6083 8.41447 40.6354 11.2332 40.6251 14.6145V33.6207C40.6251 40.5624 36.2167 44.8749 29.1229 44.8749H11.5021C4.40833 44.8749 0 40.502 0 33.4624V14.6103C0 8.06278 3.93137 3.85997 10.3431 3.4125L10.3444 1.64551C10.3444 0.783008 11.0444 0.0830078 11.9069 0.0830078C12.7694 0.0830078 13.4694 0.783008 13.4694 1.64551L13.4687 3.37259H27.1729L27.174 1.64551C27.174 0.783008 27.874 0.0830078 28.7365 0.0830078ZM37.5 18.633H3.125V33.4624C3.125 38.8082 6.1 41.7499 11.5021 41.7499H29.1229C34.525 41.7499 37.5001 38.8624 37.5001 33.6207L37.5 18.633ZM27.1729 6.49759H13.4687L13.4694 8.50176C13.4694 9.36426 12.7694 10.0643 11.9069 10.0643C11.0444 10.0643 10.3444 9.36426 10.3444 8.50176L10.3433 6.54489C5.67612 6.93695 3.125 9.76604 3.125 14.6103V15.508H37.5L37.5001 14.6103C37.5083 12.0374 36.8167 10.0374 35.4437 8.66238C34.2386 7.45365 32.4768 6.73176 30.3007 6.54589L30.299 8.50176C30.299 9.36426 29.5989 10.0643 28.7365 10.0643C27.874 10.0643 27.174 9.36426 27.174 8.50176L27.1729 6.49759Z" fill="white"/>
<path d="M16.544 27.4H15.144L14.48 29.32L14 31.12L12.688 27.4H11.872L10.616 31.12L10.112 29.312L9.416 27.4H8.016L10.104 32.992H11.128L12.288 29.864L13.488 32.992H14.512L16.544 27.4ZM21.4739 31.848H18.4339V30.72H21.1939V29.624H18.4339V28.544H21.3619V27.4H17.2099V33H21.4739V31.848ZM26.7239 31.848H23.6839V30.72H26.4439V29.624H23.6839V28.544H26.6119V27.4H22.4599V33H26.7239V31.848ZM32.3339 27.4H30.8219L28.9579 29.712V27.4H27.7099V33H28.9579V30.608L31.0299 33H32.5339V32.928L30.0619 30.12L32.3339 27.432V27.4Z" fill="white"/>
</svg>
